<svg width="512" height="453" viewBox="0 0 512 453" fill="none" xmlns="http://www.w3.org/2000/svg">
    <rect y="16.9583" width="303.506" height="392.864" rx="15.35" fill="white" />
    <rect y="16.9583" width="303.506" height="392.864" rx="15.35" fill="black" fill-opacity="0.35" />
    <rect x="22.5859" y="52.7314" width="171.011" height="15.4064" rx="7.70321" fill="#D9D9D9" />
    <rect x="110.403" y="356.238" width="171.011" height="15.4064" rx="7.70321" fill="#D9D9D9" />
    <rect x="22.5859" y="117.438" width="171.011" height="15.4064" rx="7.70321" fill="#D9D9D9" />
    <rect x="207.463" y="117.438" width="73.9508" height="15.4064" rx="7.70321" fill="#FF4D84" />
    <rect x="22.5859" y="143.629" width="112.467" height="15.4064" rx="7.70321" fill="#D9D9D9" />
    <rect x="150.459" y="143.629" width="112.467" height="15.4064" rx="7.70321" fill="#D9D9D9" />
    <rect x="22.5859" y="169.82" width="198.743" height="15.4064" rx="7.70321" fill="#D9D9D9" />
    <rect x="22.5859" y="253.015" width="73.9508" height="15.4064" rx="7.70321" fill="#D9D9D9" />
    <rect x="22.5859" y="196.011" width="257.287" height="15.4064" rx="7.70321" fill="#D9D9D9" />
    <rect x="22.5859" y="222.202" width="64.7069" height="15.4064" rx="7.70321" fill="#FF4D84" />
    <rect x="96.5369" y="222.202" width="50.8412" height="15.4064" rx="7.70321" fill="#D9D9D9" />
    <rect x="156.622" y="222.202" width="123.251" height="15.4064" rx="7.70321" fill="#D9D9D9" />
    <rect x="107.321" y="253.015" width="172.552" height="15.4064" rx="7.70321" fill="#D9D9D9" />
    <rect x="22.5859" y="305.397" width="172.552" height="15.4064" rx="7.70321" fill="#D9D9D9" />
    <rect x="21.0454" y="279.206" width="107.845" height="15.4064" rx="7.70321" fill="#D9D9D9" />
    <rect x="138.134" y="279.206" width="72.4101" height="15.4064" rx="7.70321" fill="#D9D9D9" />
    <rect x="221.329" y="279.206" width="58.5444" height="15.4064" rx="7.70321" fill="#D9D9D9" />
    <rect x="12.4937" width="303.506" height="392.864" rx="15.35" fill="white" />
    <rect x="35.0796" y="35.7732" width="171.011" height="15.4064" rx="7.70321" fill="#D9D9D9" />
    <rect x="122.896" y="339.28" width="171.011" height="15.4064" rx="7.70321" fill="#D9D9D9" />
    <rect x="35.0796" y="100.48" width="171.011" height="15.4064" rx="7.70321" fill="#D9D9D9" />
    <rect x="219.957" y="100.48" width="73.9508" height="15.4064" rx="7.70321" fill="#FF4D84" />
    <rect x="35.0796" y="126.671" width="112.467" height="15.4064" rx="7.70321" fill="#D9D9D9" />
    <rect x="162.953" y="126.671" width="112.467" height="15.4064" rx="7.70321" fill="#D9D9D9" />
    <rect x="35.0796" y="152.862" width="198.743" height="15.4064" rx="7.70321" fill="#D9D9D9" />
    <rect x="35.0796" y="236.057" width="73.9508" height="15.4064" rx="7.70321" fill="#D9D9D9" />
    <rect x="35.0796" y="179.053" width="257.287" height="15.4064" rx="7.70321" fill="#D9D9D9" />
    <rect x="35.0796" y="205.244" width="64.7069" height="15.4064" rx="7.70321" fill="#FF4D84" />
    <rect x="109.031" y="205.244" width="50.8412" height="15.4064" rx="7.70321" fill="#D9D9D9" />
    <rect x="169.115" y="205.244" width="123.251" height="15.4064" rx="7.70321" fill="#D9D9D9" />
    <rect x="119.815" y="236.057" width="172.552" height="15.4064" rx="7.70321" fill="#D9D9D9" />
    <rect x="35.0796" y="288.438" width="172.552" height="15.4064" rx="7.70321" fill="#D9D9D9" />
    <rect x="33.5391" y="262.248" width="107.845" height="15.4064" rx="7.70321" fill="#D9D9D9" />
    <rect x="150.628" y="262.248" width="72.4101" height="15.4064" rx="7.70321" fill="#D9D9D9" />
    <rect x="233.823" y="262.248" width="58.5444" height="15.4064" rx="7.70321" fill="#D9D9D9" />
    <rect x="196" y="59.9583" width="303.506" height="392.864" rx="15.35" fill="white" />
    <rect x="196" y="59.9583" width="303.506" height="392.864" rx="15.35" fill="black" fill-opacity="0.35" />
    <rect x="218.586" y="95.7314" width="171.011" height="15.4064" rx="7.70321" fill="#D9D9D9" />
    <rect x="306.403" y="399.238" width="171.011" height="15.4064" rx="7.70321" fill="#D9D9D9" />
    <rect x="218.586" y="160.438" width="171.011" height="15.4064" rx="7.70321" fill="#D9D9D9" />
    <rect x="403.463" y="160.438" width="73.9508" height="15.4064" rx="7.70321" fill="#FF4D84" />
    <rect x="218.586" y="186.629" width="112.467" height="15.4064" rx="7.70321" fill="#D9D9D9" />
    <rect x="346.459" y="186.629" width="112.467" height="15.4064" rx="7.70321" fill="#D9D9D9" />
    <rect x="218.586" y="212.82" width="198.743" height="15.4064" rx="7.70321" fill="#D9D9D9" />
    <rect x="218.586" y="296.015" width="73.9508" height="15.4064" rx="7.70321" fill="#D9D9D9" />
    <rect x="218.586" y="239.011" width="257.287" height="15.4064" rx="7.70321" fill="#D9D9D9" />
    <rect x="218.586" y="265.202" width="64.7069" height="15.4064" rx="7.70321" fill="#FF4D84" />
    <rect x="292.537" y="265.202" width="50.8412" height="15.4064" rx="7.70321" fill="#D9D9D9" />
    <rect x="352.622" y="265.202" width="123.251" height="15.4064" rx="7.70321" fill="#D9D9D9" />
    <rect x="303.321" y="296.015" width="172.552" height="15.4064" rx="7.70321" fill="#D9D9D9" />
    <rect x="218.586" y="348.397" width="172.552" height="15.4064" rx="7.70321" fill="#D9D9D9" />
    <rect x="217.045" y="322.206" width="107.845" height="15.4064" rx="7.70321" fill="#D9D9D9" />
    <rect x="334.134" y="322.206" width="72.4101" height="15.4064" rx="7.70321" fill="#D9D9D9" />
    <rect x="417.329" y="322.206" width="58.5444" height="15.4064" rx="7.70321" fill="#D9D9D9" />
    <rect x="208.494" y="43" width="303.506" height="392.864" rx="15.35" fill="white" />
    <rect x="231.08" y="78.7732" width="171.011" height="15.4064" rx="7.70321" fill="#D9D9D9" />
    <rect x="318.896" y="382.28" width="171.011" height="15.4064" rx="7.70321" fill="#D9D9D9" />
    <rect x="231.08" y="143.48" width="171.011" height="15.4064" rx="7.70321" fill="#D9D9D9" />
    <rect x="415.957" y="143.48" width="73.9508" height="15.4064" rx="7.70321" fill="#FF4D84" />
    <rect x="231.08" y="169.671" width="112.467" height="15.4064" rx="7.70321" fill="#D9D9D9" />
    <rect x="358.953" y="169.671" width="112.467" height="15.4064" rx="7.70321" fill="#D9D9D9" />
    <rect x="231.08" y="195.862" width="198.743" height="15.4064" rx="7.70321" fill="#D9D9D9" />
    <rect x="231.08" y="279.057" width="73.9508" height="15.4064" rx="7.70321" fill="#D9D9D9" />
    <rect x="231.08" y="222.053" width="257.287" height="15.4064" rx="7.70321" fill="#D9D9D9" />
    <rect x="231.08" y="248.244" width="64.7069" height="15.4064" rx="7.70321" fill="#FF4D84" />
    <rect x="305.031" y="248.244" width="50.8412" height="15.4064" rx="7.70321" fill="#D9D9D9" />
    <rect x="365.115" y="248.244" width="123.251" height="15.4064" rx="7.70321" fill="#D9D9D9" />
    <rect x="315.815" y="279.057" width="172.552" height="15.4064" rx="7.70321" fill="#D9D9D9" />
    <rect x="231.08" y="331.438" width="172.552" height="15.4064" rx="7.70321" fill="#D9D9D9" />
    <rect x="229.539" y="305.248" width="107.845" height="15.4064" rx="7.70321" fill="#D9D9D9" />
    <rect x="346.628" y="305.248" width="72.4101" height="15.4064" rx="7.70321" fill="#D9D9D9" />
    <rect x="429.822" y="305.248" width="58.5444" height="15.4064" rx="7.70321" fill="#D9D9D9" />
</svg>