<svg width="560" height="725" viewBox="0 0 560 725" fill="none" xmlns="http://www.w3.org/2000/svg">
    <rect y="30" width="536.922" height="695" rx="27.1551" fill="white" />
    <rect y="30" width="536.922" height="695" rx="27.1551" fill="black" fill-opacity="0.35" />
    <rect x="39.0586" y="94.5488" width="302.529" height="27.2549" rx="13.6275" fill="#D9D9D9" />
    <rect x="194.412" y="631.47" width="302.529" height="27.2549" rx="13.6275" fill="#D9D9D9" />
    <rect x="39.0586" y="209.019" width="302.529" height="27.2549" rx="13.6275" fill="#D9D9D9" />
    <rect x="366.118" y="209.019" width="130.824" height="27.2549" rx="13.6275" fill="#FF4D84" />
    <rect x="39.0586" y="255.353" width="198.961" height="27.2549" rx="13.6275" fill="#D9D9D9" />
    <rect x="265.275" y="255.353" width="198.961" height="27.2549" rx="13.6275" fill="#D9D9D9" />
    <rect x="39.0586" y="301.686" width="351.588" height="27.2549" rx="13.6275" fill="#D9D9D9" />
    <rect x="39.0586" y="448.863" width="130.824" height="27.2549" rx="13.6275" fill="#D9D9D9" />
    <rect x="39.0586" y="348.019" width="455.157" height="27.2549" rx="13.6275" fill="#D9D9D9" />
    <rect x="39.0586" y="394.353" width="114.471" height="27.2549" rx="13.6275" fill="#FF4D84" />
    <rect x="169.882" y="394.353" width="89.9412" height="27.2549" rx="13.6275" fill="#D9D9D9" />
    <rect x="276.177" y="394.353" width="218.039" height="27.2549" rx="13.6275" fill="#D9D9D9" />
    <rect x="188.961" y="448.863" width="305.255" height="27.2549" rx="13.6275" fill="#D9D9D9" />
    <rect x="39.0586" y="541.529" width="305.255" height="27.2549" rx="13.6275" fill="#D9D9D9" />
    <rect x="36.333" y="495.196" width="190.784" height="27.2549" rx="13.6275" fill="#D9D9D9" />
    <rect x="243.471" y="495.196" width="128.098" height="27.2549" rx="13.6275" fill="#D9D9D9" />
    <rect x="390.647" y="495.196" width="103.569" height="27.2549" rx="13.6275" fill="#D9D9D9" />
    <rect x="22.1021" width="536.922" height="695" rx="27.1551" fill="white" />
    <rect x="61.1606" y="64.5488" width="302.529" height="27.2549" rx="13.6275" fill="#D9D9D9" />
    <rect x="216.514" y="601.47" width="302.529" height="27.2549" rx="13.6275" fill="#D9D9D9" />
    <rect x="61.1606" y="179.019" width="302.529" height="27.2549" rx="13.6275" fill="#D9D9D9" />
    <rect x="388.22" y="179.019" width="130.824" height="27.2549" rx="13.6275" fill="#FF4D84" />
    <rect x="61.1606" y="225.353" width="198.961" height="27.2549" rx="13.6275" fill="#D9D9D9" />
    <rect x="287.377" y="225.353" width="198.961" height="27.2549" rx="13.6275" fill="#D9D9D9" />
    <rect x="61.1606" y="271.686" width="351.588" height="27.2549" rx="13.6275" fill="#D9D9D9" />
    <rect x="61.1606" y="418.863" width="130.824" height="27.2549" rx="13.6275" fill="#D9D9D9" />
    <rect x="61.1606" y="318.019" width="455.157" height="27.2549" rx="13.6275" fill="#D9D9D9" />
    <rect x="61.1606" y="364.353" width="114.471" height="27.2549" rx="13.6275" fill="#FF4D84" />
    <rect x="191.984" y="364.353" width="89.9412" height="27.2549" rx="13.6275" fill="#D9D9D9" />
    <rect x="298.279" y="364.353" width="218.039" height="27.2549" rx="13.6275" fill="#D9D9D9" />
    <rect x="211.063" y="418.863" width="305.255" height="27.2549" rx="13.6275" fill="#D9D9D9" />
    <rect x="61.1606" y="511.529" width="305.255" height="27.2549" rx="13.6275" fill="#D9D9D9" />
    <rect x="58.4351" y="465.196" width="190.784" height="27.2549" rx="13.6275" fill="#D9D9D9" />
    <rect x="265.573" y="465.196" width="128.098" height="27.2549" rx="13.6275" fill="#D9D9D9" />
    <rect x="412.75" y="465.196" width="103.569" height="27.2549" rx="13.6275" fill="#D9D9D9" />
</svg>