<svg width="317" height="77" viewBox="0 0 317 77" fill="none" xmlns="http://www.w3.org/2000/svg">
    <path
        d="M20.608 62H4.10795V15.4545H20.7443C25.4261 15.4545 29.4564 16.3864 32.8352 18.25C36.214 20.0985 38.8125 22.7576 40.6307 26.2273C42.464 29.697 43.3807 33.8485 43.3807 38.6818C43.3807 43.5303 42.464 47.697 40.6307 51.1818C38.8125 54.6667 36.1989 57.3409 32.7898 59.2045C29.3958 61.0682 25.3352 62 20.608 62ZM13.9489 53.5682H20.1989C23.108 53.5682 25.5549 53.053 27.5398 52.0227C29.5398 50.9773 31.0398 49.3636 32.0398 47.1818C33.0549 44.9848 33.5625 42.1515 33.5625 38.6818C33.5625 35.2424 33.0549 32.4318 32.0398 30.25C31.0398 28.0682 29.5473 26.4621 27.5625 25.4318C25.5777 24.4015 23.1307 23.8864 20.2216 23.8864H13.9489V53.5682ZM66.2614 62.6818C62.7311 62.6818 59.678 61.9318 57.1023 60.4318C54.5417 58.9167 52.5644 56.8106 51.1705 54.1136C49.7765 51.4015 49.0795 48.2576 49.0795 44.6818C49.0795 41.0758 49.7765 37.9242 51.1705 35.2273C52.5644 32.5152 54.5417 30.4091 57.1023 28.9091C59.678 27.3939 62.7311 26.6364 66.2614 26.6364C69.7917 26.6364 72.8371 27.3939 75.3977 28.9091C77.9735 30.4091 79.9583 32.5152 81.3523 35.2273C82.7462 37.9242 83.4432 41.0758 83.4432 44.6818C83.4432 48.2576 82.7462 51.4015 81.3523 54.1136C79.9583 56.8106 77.9735 58.9167 75.3977 60.4318C72.8371 61.9318 69.7917 62.6818 66.2614 62.6818ZM66.3068 55.1818C67.9129 55.1818 69.2538 54.7273 70.3295 53.8182C71.4053 52.8939 72.2159 51.6364 72.7614 50.0455C73.322 48.4545 73.6023 46.6439 73.6023 44.6136C73.6023 42.5833 73.322 40.7727 72.7614 39.1818C72.2159 37.5909 71.4053 36.3333 70.3295 35.4091C69.2538 34.4848 67.9129 34.0227 66.3068 34.0227C64.6856 34.0227 63.322 34.4848 62.2159 35.4091C61.125 36.3333 60.2992 37.5909 59.7386 39.1818C59.1932 40.7727 58.9205 42.5833 58.9205 44.6136C58.9205 46.6439 59.1932 48.4545 59.7386 50.0455C60.2992 51.6364 61.125 52.8939 62.2159 53.8182C63.322 54.7273 64.6856 55.1818 66.3068 55.1818ZM105.511 62.6818C101.936 62.6818 98.8598 61.9242 96.2841 60.4091C93.7235 58.8788 91.7538 56.7576 90.375 54.0455C89.0114 51.3333 88.3295 48.2121 88.3295 44.6818C88.3295 41.1061 89.0189 37.9697 90.3977 35.2727C91.7917 32.5606 93.7689 30.447 96.3295 28.9318C98.8902 27.4015 101.936 26.6364 105.466 26.6364C108.511 26.6364 111.178 27.1894 113.466 28.2955C115.754 29.4015 117.564 30.9545 118.898 32.9545C120.231 34.9545 120.966 37.303 121.102 40H111.966C111.708 38.2576 111.027 36.8561 109.92 35.7955C108.83 34.7197 107.398 34.1818 105.625 34.1818C104.125 34.1818 102.814 34.5909 101.693 35.4091C100.587 36.2121 99.7235 37.3864 99.1023 38.9318C98.4811 40.4773 98.1705 42.3485 98.1705 44.5455C98.1705 46.7727 98.4735 48.6667 99.0795 50.2273C99.7008 51.7879 100.572 52.9773 101.693 53.7955C102.814 54.6136 104.125 55.0227 105.625 55.0227C106.731 55.0227 107.723 54.7955 108.602 54.3409C109.496 53.8864 110.231 53.2273 110.807 52.3636C111.398 51.4848 111.784 50.4318 111.966 49.2045H121.102C120.951 51.8712 120.223 54.2197 118.92 56.25C117.633 58.2652 115.852 59.8409 113.58 60.9773C111.307 62.1136 108.617 62.6818 105.511 62.6818ZM149.688 47.1364V27.0909H159.369V62H150.074V55.6591H149.71C148.922 57.7045 147.612 59.3485 145.778 60.5909C143.96 61.8333 141.741 62.4545 139.119 62.4545C136.786 62.4545 134.733 61.9242 132.96 60.8636C131.188 59.803 129.801 58.2955 128.801 56.3409C127.816 54.3864 127.316 52.0455 127.301 49.3182V27.0909H136.983V47.5909C136.998 49.6515 137.551 51.2803 138.642 52.4773C139.733 53.6742 141.195 54.2727 143.028 54.2727C144.195 54.2727 145.286 54.0076 146.301 53.4773C147.316 52.9318 148.134 52.1288 148.756 51.0682C149.392 50.0076 149.703 48.697 149.688 47.1364ZM289.097 41.1818V24.4091H297.301C298.362 24.4091 299.331 24.6288 300.21 25.0682C301.104 25.5076 301.809 26.1439 302.324 26.9773C302.854 27.7955 303.119 28.7955 303.119 29.9773C303.119 31.1591 302.847 32.1667 302.301 33C301.756 33.8333 301.028 34.4697 300.119 34.9091C299.21 35.3333 298.203 35.5455 297.097 35.5455H291.483V32.3864H296.188C296.824 32.3864 297.369 32.1818 297.824 31.7727C298.294 31.3636 298.528 30.7576 298.528 29.9545C298.528 29.1212 298.294 28.5303 297.824 28.1818C297.369 27.8182 296.831 27.6364 296.21 27.6364H293.46V41.1818H289.097ZM299.801 33.4318L303.619 41.1818H298.847L295.278 33.4318H299.801ZM295.665 51.1818C293.15 51.1818 290.794 50.7121 288.597 49.7727C286.4 48.8333 284.468 47.5303 282.801 45.8636C281.134 44.197 279.831 42.2652 278.892 40.0682C277.953 37.8712 277.483 35.5152 277.483 33C277.483 30.4848 277.953 28.1288 278.892 25.9318C279.831 23.7348 281.134 21.803 282.801 20.1364C284.468 18.4697 286.4 17.1667 288.597 16.2273C290.794 15.2879 293.15 14.8182 295.665 14.8182C298.18 14.8182 300.536 15.2879 302.733 16.2273C304.93 17.1667 306.862 18.4697 308.528 20.1364C310.195 21.803 311.498 23.7348 312.438 25.9318C313.377 28.1288 313.847 30.4848 313.847 33C313.847 35.5152 313.377 37.8712 312.438 40.0682C311.498 42.2652 310.195 44.197 308.528 45.8636C306.862 47.5303 304.93 48.8333 302.733 49.7727C300.536 50.7121 298.18 51.1818 295.665 51.1818ZM295.665 46.3864C298.15 46.3864 300.4 45.7879 302.415 44.5909C304.445 43.3788 306.059 41.7652 307.256 39.75C308.453 37.7197 309.051 35.4697 309.051 33C309.051 30.5303 308.445 28.2879 307.233 26.2727C306.036 24.2424 304.422 22.6288 302.392 21.4318C300.377 20.2197 298.134 19.6136 295.665 19.6136C293.21 19.6136 290.968 20.2197 288.938 21.4318C286.907 22.6288 285.294 24.2424 284.097 26.2727C282.9 28.2879 282.301 30.5303 282.301 33C282.301 35.4697 282.9 37.7197 284.097 39.75C285.294 41.7652 286.907 43.3788 288.938 44.5909C290.968 45.7879 293.21 46.3864 295.665 46.3864Z"
        fill="white" />
    <path
        d="M206.227 15.4545V62H197.727L177.477 32.7045H177.136V62H167.295V15.4545H175.932L196.023 44.7273H196.432V15.4545H206.227ZM229.949 62.6818C226.419 62.6818 223.366 61.9318 220.79 60.4318C218.229 58.9167 216.252 56.8106 214.858 54.1136C213.464 51.4015 212.767 48.2576 212.767 44.6818C212.767 41.0758 213.464 37.9242 214.858 35.2273C216.252 32.5152 218.229 30.4091 220.79 28.9091C223.366 27.3939 226.419 26.6364 229.949 26.6364C233.479 26.6364 236.525 27.3939 239.085 28.9091C241.661 30.4091 243.646 32.5152 245.04 35.2273C246.434 37.9242 247.131 41.0758 247.131 44.6818C247.131 48.2576 246.434 51.4015 245.04 54.1136C243.646 56.8106 241.661 58.9167 239.085 60.4318C236.525 61.9318 233.479 62.6818 229.949 62.6818ZM229.994 55.1818C231.6 55.1818 232.941 54.7273 234.017 53.8182C235.093 52.8939 235.903 51.6364 236.449 50.0455C237.009 48.4545 237.29 46.6439 237.29 44.6136C237.29 42.5833 237.009 40.7727 236.449 39.1818C235.903 37.5909 235.093 36.3333 234.017 35.4091C232.941 34.4848 231.6 34.0227 229.994 34.0227C228.373 34.0227 227.009 34.4848 225.903 35.4091C224.813 36.3333 223.987 37.5909 223.426 39.1818C222.881 40.7727 222.608 42.5833 222.608 44.6136C222.608 46.6439 222.881 48.4545 223.426 50.0455C223.987 51.6364 224.813 52.8939 225.903 53.8182C227.009 54.7273 228.373 55.1818 229.994 55.1818ZM271.994 27.0909V34.3636H250.972V27.0909H271.994ZM255.744 18.7273H265.426V51.2727C265.426 52.1667 265.563 52.8636 265.835 53.3636C266.108 53.8485 266.487 54.1894 266.972 54.3864C267.472 54.5833 268.047 54.6818 268.699 54.6818C269.153 54.6818 269.608 54.6439 270.062 54.5682C270.517 54.4773 270.866 54.4091 271.108 54.3636L272.631 61.5682C272.146 61.7197 271.464 61.8939 270.585 62.0909C269.706 62.303 268.638 62.4318 267.381 62.4773C265.047 62.5682 263.002 62.2576 261.244 61.5455C259.502 60.8333 258.146 59.7273 257.176 58.2273C256.206 56.7273 255.729 54.8333 255.744 52.5455V18.7273Z"
        fill="#FF4D84" />
</svg>