<svg width="32" height="32" viewBox="0 0 32 32" fill="none" xmlns="http://www.w3.org/2000/svg">
    <g clip-path="url(#clip0_151_686)">
        <path fill-rule="evenodd" clip-rule="evenodd"
            d="M16 7.3333C14.3719 7.33366 12.7767 7.79266 11.3974 8.65771C10.018 9.52276 8.91022 10.7589 8.20092 12.2244C7.49163 13.69 7.20951 15.3257 7.38689 16.9442C7.56427 18.5626 8.19398 20.0984 9.20387 21.3756C10.2138 22.6527 11.563 23.6195 13.097 24.1653C14.631 24.711 16.2877 24.8136 17.8773 24.4613C19.4669 24.109 20.9251 23.3161 22.0848 22.1733C23.2446 21.0305 24.059 19.5842 24.4347 18H17.3334C16.8029 18 16.2942 17.7893 15.9192 17.4142C15.5441 17.0391 15.3334 16.5304 15.3334 16C15.3334 15.4695 15.5441 14.9608 15.9192 14.5858C16.2942 14.2107 16.8029 14 17.3334 14H26.6667C27.1971 14 27.7059 14.2107 28.0809 14.5858C28.456 14.9608 28.6667 15.4695 28.6667 16C28.6667 18.929 27.6516 21.7675 25.7943 24.0322C23.9369 26.297 21.352 27.8481 18.4797 28.4215C15.6074 28.9949 12.6251 28.5551 10.0405 27.1771C7.45596 25.799 5.42885 23.5678 4.30425 20.8633C3.17965 18.1588 3.02707 15.1482 3.8725 12.3438C4.71792 9.53951 6.50909 7.11482 8.9411 5.48253C11.3731 3.85025 14.2957 3.11124 17.2112 3.39131C20.1268 3.67138 22.8552 4.95322 24.932 7.01863C25.1183 7.20389 25.2662 7.424 25.3673 7.66641C25.4685 7.90882 25.5209 8.16878 25.5215 8.43145C25.5222 8.69411 25.4712 8.95434 25.3713 9.19727C25.2714 9.44021 25.1246 9.66109 24.9394 9.8473C24.7541 10.0335 24.534 10.1814 24.2916 10.2826C24.0492 10.3837 23.7892 10.4361 23.5266 10.4368C22.9961 10.4382 22.4868 10.2288 22.1107 9.85463C21.3077 9.05356 20.3547 8.41857 19.3063 7.98595C18.2578 7.55333 17.1343 7.33155 16 7.3333Z"
            fill="white" />
    </g>
    <defs>
        <clipPath id="clip0_151_686">
            <rect width="32" height="32" fill="white" />
        </clipPath>
    </defs>
</svg>