<svg width="48" height="48" viewBox="0 0 48 48" fill="none" xmlns="http://www.w3.org/2000/svg">
    <path
        d="M30 26H33V31.64L37.88 34.46L36.38 37.06L30 33.38V26ZM38 16H10V38H19.34C18.48 36.18 18 34.14 18 32C18 28.287 19.475 24.726 22.1005 22.1005C24.726 19.475 28.287 18 32 18C34.14 18 36.18 18.48 38 19.34V16ZM10 42C8.93913 42 7.92172 41.5786 7.17157 40.8284C6.42143 40.0783 6 39.0609 6 38V10C6 7.78 7.78 6 10 6H12V2H16V6H32V2H36V6H38C39.0609 6 40.0783 6.42143 40.8284 7.17157C41.5786 7.92172 42 8.93913 42 10V22.2C44.48 24.72 46 28.18 46 32C46 35.713 44.525 39.274 41.8995 41.8995C39.274 44.525 35.713 46 32 46C28.18 46 24.72 44.48 22.2 42H10ZM32 22.3C29.4274 22.3 26.9602 23.322 25.1411 25.1411C23.322 26.9602 22.3 29.4274 22.3 32C22.3 37.36 26.64 41.7 32 41.7C33.2738 41.7 34.5352 41.4491 35.712 40.9616C36.8889 40.4742 37.9582 39.7597 38.8589 38.8589C39.7597 37.9582 40.4742 36.8889 40.9616 35.712C41.4491 34.5352 41.7 33.2738 41.7 32C41.7 26.64 37.36 22.3 32 22.3Z"
        fill="black" />
</svg>