<svg width="24" height="24" viewBox="0 0 24 24" fill="none" xmlns="http://www.w3.org/2000/svg">
    <path
        d="M7 17C5.61667 17 4.43733 16.5123 3.462 15.537C2.48667 14.5617 1.99933 13.3827 2 12C2 10.6167 2.48767 9.43734 3.463 8.462C4.43833 7.48667 5.61733 6.99934 7 7H10C10.2833 7 10.521 7.096 10.713 7.288C10.905 7.48 11.0007 7.71734 11 8C11 8.28334 10.904 8.521 10.712 8.713C10.52 8.905 10.2827 9.00067 10 9H7C6.16667 9 5.45833 9.29167 4.875 9.875C4.29167 10.4583 4 11.1667 4 12C4 12.8333 4.29167 13.5417 4.875 14.125C5.45833 14.7083 6.16667 15 7 15H10C10.2833 15 10.521 15.096 10.713 15.288C10.905 15.48 11.0007 15.7173 11 16C11 16.2833 10.904 16.521 10.712 16.713C10.52 16.905 10.2827 17.0007 10 17H7ZM9 13C8.71667 13 8.479 12.904 8.287 12.712C8.095 12.52 7.99933 12.2827 8 12C8 11.7167 8.096 11.479 8.288 11.287C8.48 11.095 8.71733 10.9993 9 11H15C15.2833 11 15.521 11.096 15.713 11.288C15.905 11.48 16.0007 11.7173 16 12C16 12.2833 15.904 12.521 15.712 12.713C15.52 12.905 15.2827 13.0007 15 13H9ZM14 17C13.7167 17 13.479 16.904 13.287 16.712C13.095 16.52 12.9993 16.2827 13 16C13 15.7167 13.096 15.479 13.288 15.287C13.48 15.095 13.7173 14.9993 14 15H17C17.8333 15 18.5417 14.7083 19.125 14.125C19.7083 13.5417 20 12.8333 20 12C20 11.1667 19.7083 10.4583 19.125 9.875C18.5417 9.29167 17.8333 9 17 9H14C13.7167 9 13.479 8.904 13.287 8.712C13.095 8.52 12.9993 8.28267 13 8C13 7.71667 13.096 7.479 13.288 7.287C13.48 7.095 13.7173 6.99934 14 7H17C18.3833 7 19.5627 7.48767 20.538 8.463C21.5133 9.43834 22.0007 10.6173 22 12C22 13.3833 21.5123 14.5627 20.537 15.538C19.5617 16.5133 18.3827 17.0007 17 17H14Z"
        fill="#FF4D84" />
</svg>