<svg width="32" height="32" viewBox="0 0 32 32" fill="none" xmlns="http://www.w3.org/2000/svg">
    <path
        d="M7.99998 2.66669C7.29274 2.66669 6.61446 2.94764 6.11436 3.44774C5.61426 3.94783 5.33331 4.62611 5.33331 5.33335V26.6667C5.33331 27.3739 5.61426 28.0522 6.11436 28.5523C6.61446 29.0524 7.29274 29.3334 7.99998 29.3334H24C24.7072 29.3334 25.3855 29.0524 25.8856 28.5523C26.3857 28.0522 26.6666 27.3739 26.6666 26.6667V10.6667L18.6666 2.66669H7.99998ZM7.99998 5.33335H17.3333V12H24V26.6667H7.99998V5.33335ZM10.6666 16V18.6667H21.3333V16H10.6666ZM10.6666 21.3334V24H17.3333V21.3334H10.6666Z"
        fill="black" />
</svg>