<svg width="32" height="32" viewBox="0 0 32 32" fill="none" xmlns="http://www.w3.org/2000/svg">
    <path
        d="M27.3334 9.33333C29.9067 9.33333 32 7.24 32 4.66667C32 2.09333 29.9067 0 27.3334 0C24.76 0 22.6667 2.09333 22.6667 4.66667C22.6667 7.24 24.76 9.33333 27.3334 9.33333ZM29.3334 20V11.72C28.6667 11.9067 28 12 27.3334 12H26.6667V20C26.6667 22.2133 24.88 24 22.6667 24H12C9.78671 24 8.00004 22.2133 8.00004 20V9.33333C8.00004 7.12 9.78671 5.33333 12 5.33333H20V4.66667C20 4 20.0934 3.33333 20.28 2.66667H12C8.32004 2.66667 5.33337 5.65333 5.33337 9.33333V20C5.33337 23.68 8.32004 26.6667 12 26.6667H22.6667C26.3467 26.6667 29.3334 23.68 29.3334 20Z"
        fill="black" />
</svg>