<svg width="16" height="16" viewBox="0 0 16 16" fill="none" xmlns="http://www.w3.org/2000/svg">
    <path
        d="M14.5306 7.03061L11.5306 10.0306C11.3897 10.1715 11.1986 10.2507 10.9994 10.2507C10.8001 10.2507 10.609 10.1715 10.4681 10.0306C10.3272 9.88972 10.2481 9.69862 10.2481 9.49936C10.2481 9.30011 10.3272 9.10901 10.4681 8.96811L12.1875 7.24999H10.3125C9.1483 7.24961 8.017 7.6362 7.09651 8.34897C6.17602 9.06175 5.51855 10.0603 5.2275 11.1875C5.20288 11.2829 5.15971 11.3724 5.10046 11.4511C5.04122 11.5298 4.96705 11.5961 4.8822 11.6461C4.79735 11.6961 4.70348 11.729 4.60595 11.7427C4.50841 11.7565 4.40912 11.7509 4.31375 11.7262C4.21838 11.7016 4.12879 11.6584 4.0501 11.5992C3.97141 11.54 3.90516 11.4658 3.85513 11.3809C3.8051 11.2961 3.77228 11.2022 3.75853 11.1047C3.74478 11.0071 3.75038 10.9079 3.775 10.8125C4.14861 9.36293 4.99371 8.07881 6.17726 7.16229C7.36081 6.24578 8.81557 5.74893 10.3125 5.74999H12.1875L10.4694 4.02999C10.3285 3.88909 10.2493 3.69799 10.2493 3.49874C10.2493 3.29948 10.3285 3.10838 10.4694 2.96749C10.6103 2.82659 10.8014 2.74744 11.0006 2.74744C11.1999 2.74744 11.391 2.82659 11.5319 2.96749L14.5319 5.96749C14.6018 6.03726 14.6573 6.12016 14.6951 6.21142C14.7329 6.30269 14.7523 6.40052 14.7522 6.49931C14.752 6.59809 14.7324 6.69588 14.6944 6.78706C14.6564 6.87824 14.6007 6.96101 14.5306 7.03061ZM12 12.75H2.75V5.49999C2.75 5.30107 2.67098 5.11031 2.53033 4.96966C2.38968 4.829 2.19891 4.74999 2 4.74999C1.80109 4.74999 1.61032 4.829 1.46967 4.96966C1.32902 5.11031 1.25 5.30107 1.25 5.49999V13C1.25 13.3315 1.3817 13.6495 1.61612 13.8839C1.85054 14.1183 2.16848 14.25 2.5 14.25H12C12.1989 14.25 12.3897 14.171 12.5303 14.0303C12.671 13.8897 12.75 13.6989 12.75 13.5C12.75 13.3011 12.671 13.1103 12.5303 12.9697C12.3897 12.829 12.1989 12.75 12 12.75Z"
        fill="white" />
</svg>